<svg id="レイヤー_1" data-name="レイヤー 1" xmlns="http://www.w3.org/2000/svg" viewBox="0 0 600 600"><defs><style>.cls-1{opacity:0.25;}.cls-2,.cls-3{fill:none;stroke:#fff;stroke-width:2px;opacity:0.5;}.cls-2{stroke-miterlimit:10;}.cls-3{stroke-linecap:round;stroke-linejoin:round;}</style></defs><title>アートボード 1</title><g class="cls-1"><circle class="cls-2" cx="402.9" cy="196.8" r="35.8"/><circle class="cls-2" cx="262.3" cy="402.3" r="64.2"/><circle class="cls-2" cx="54.3" cy="454.3" r="33.2"/><circle class="cls-2" cx="215.8" cy="92.7" r="54.7"/><circle class="cls-2" cx="442.7" cy="560.6" r="29.1"/><circle class="cls-2" cx="598.7" cy="549.6" r="18.1"/><line class="cls-3" x1="415.8" y1="197.3" x2="492.1" y2="143.9"/><line class="cls-3" x1="74.8" y1="296.3" x2="270.5" y2="159.5"/><line class="cls-3" x1="357.5" y1="523.5" x2="477.5" y2="439.5"/><line class="cls-3" x1="288.5" y1="391.5" x2="181.8" y2="317.5"/><line class="cls-3" x1="161.5" y1="518.5" x2="54.8" y2="444.5"/><line class="cls-3" x1="654.5" y1="301.3" x2="503.8" y2="196.5"/><line class="cls-3" x1="367.5" y1="170.3" x2="216.8" y2="65.5"/><line class="cls-3" x1="437.5" y1="661.5" x2="675.5" y2="496.5"/><circle class="cls-2" cx="-3.3" cy="549.6" r="18.1"/><line class="cls-3" x1="52.5" y1="301.3" x2="-98.2" y2="196.5"/><line class="cls-3" x1="-164.5" y1="661.5" x2="73.5" y2="496.5"/></g></svg>