<?xml version="1.0" encoding="utf-8"?>
<!-- Generator: Adobe Illustrator 22.1.0, SVG Export Plug-In . SVG Version: 6.00 Build 0)  -->
<svg version="1.1" id="close" xmlns="http://www.w3.org/2000/svg" xmlns:xlink="http://www.w3.org/1999/xlink" x="0px" y="0px"
	 viewBox="0 0 481.2 481.2" style="enable-background:new 0 0 481.2 481.2;" xml:space="preserve">
<style type="text/css">
	.st0{fill:#FFFFFF;}
</style>
<path class="st0" d="M470.3,10.9L470.3,10.9c-14.5-14.5-38-14.5-52.5,0L240.6,188.1L63.4,10.9c-14.5-14.5-38-14.5-52.5,0l0,0
	c-14.5,14.5-14.5,38,0,52.5l177.2,177.2L10.9,417.8c-14.5,14.5-14.5,38,0,52.5l0,0c14.5,14.5,38,14.5,52.5,0l177.2-177.2
	l177.2,177.2c14.5,14.5,38,14.5,52.5,0l0,0c14.5-14.5,14.5-38,0-52.5L293.1,240.6L470.3,63.4C484.9,48.9,484.9,25.4,470.3,10.9z"/>
</svg>
