<svg id="logo" xmlns="http://www.w3.org/2000/svg" viewBox="0 0 1038.3 703.9"><defs><style>.cls-1,.cls-3{fill:none;stroke:#fff;}.cls-1{stroke-linecap:round;stroke-linejoin:round;stroke-width:2px;}.cls-2{fill:#fff;}.cls-3{stroke-miterlimit:10;stroke-width:4px;}</style></defs><title>logo</title><g id="logo-outline"><line class="cls-1" x1="1" y1="273.7" x2="384.1" y2="6.1"/><line class="cls-1" x1="609.9" y1="635.5" x2="954.2" y2="396"/><line class="cls-1" x1="999.8" y1="459.1" x2="803" y2="323.1"/><circle class="cls-2" cx="589.4" cy="618.8" r="85.1"/><circle class="cls-2" cx="863.4" cy="319.6" r="47.5"/><circle class="cls-2" cx="307.7" cy="55.1" r="55.1"/><circle class="cls-3" cx="1004.8" cy="458" r="31.5"/><circle class="cls-3" cx="96.8" cy="235.5" r="74.1"/><path class="cls-2" d="M294.6,216.4H280.3v40.4H257.7V193.9H293l4.4-.2h.8c2.2,0,3.3.7,3.3,2a2,2,0,0,1-.6,1.4,1.8,1.8,0,0,1-1.3.6,7.8,7.8,0,0,1-2.2-.2,27,27,0,0,0-5.4-.4H280.3v16h9l5.5-.3q2.4,0,2.4,1.8C297.2,215.8,296.3,216.4,294.6,216.4Z"/><path class="cls-2" d="M342.7,235.2l3.7.3a18.6,18.6,0,0,0,18.7-19.1c0-7.1-3.1-12.4-9.4-15.8a26.5,26.5,0,0,0-11-3.3,37,37,0,0,0-4.6-.2h-4.7v59.6H312.8V193.9h28.7l2.9.2,5.5.8a24.4,24.4,0,0,1,7.1,2.6,20.9,20.9,0,0,1,6,4.6,19.4,19.4,0,0,1,5.5,13.9,21.5,21.5,0,0,1-5.1,14.2,24.5,24.5,0,0,1-13.8,8.1c2.7,8.5,6.2,13.6,10.5,15.2a10.9,10.9,0,0,0,3.9.8l3.5-.9a1.5,1.5,0,0,1,1.7,1.7c0,1.6-1.9,2.4-5.5,2.4a13.7,13.7,0,0,1-7.4-2.2c-3.4-2.1-6.4-6.1-8.8-12.1l-1.3-3.2a1.7,1.7,0,0,0-.6-.9l-.8-.2h-2.1a3.4,3.4,0,0,1-2.4-.7,1.9,1.9,0,0,1-.7-1.4C339.6,235.8,340.7,235.2,342.7,235.2Z"/><path class="cls-2" d="M386.1,248.7a29.4,29.4,0,0,1-7-10.4,32.2,32.2,0,0,1-2.6-13.3,33.8,33.8,0,0,1,2.4-13,32.8,32.8,0,0,1,6.8-10c6.3-5.9,14.1-8.9,23.5-8.9s16.9,2.9,22.9,8.8,9.1,13.8,9.1,23.3-3.1,17.3-9.3,23.5a30.8,30.8,0,0,1-14.3,7.8,41.3,41.3,0,0,1-9.8,1.1,31.8,31.8,0,0,1-11.5-2.3A28.9,28.9,0,0,1,386.1,248.7Zm23-52.4a23.2,23.2,0,0,0-4.6.4V254a32.3,32.3,0,0,0,4.6.3,27.5,27.5,0,0,0,20-7.9c5.7-5.4,8.5-12.5,8.5-21.2s-2.7-15.1-8-20.6S417.4,196.3,409.1,196.3Z"/><path class="cls-2" d="M456,250.4v4.4a2.4,2.4,0,0,1-.6,1.8,2,2,0,0,1-1.5.6,2.2,2.2,0,0,1-1.4-.5,1.8,1.8,0,0,1-.6-1.3,5.3,5.3,0,0,1,.1-1.3c.1-.4.1-.8.2-1.4a44.2,44.2,0,0,0,.2-6.4V191l48.3,38.3V202.8c0-2,0-3.4-.1-4.3a23.2,23.2,0,0,1-.3-2.9c0-1.5.7-2.2,1.9-2.2a3,3,0,0,1,1.5.5,2.2,2.2,0,0,1,.7,1.6V197l-.2,6.5v55.7L456,221.3Z"/><path class="cls-2" d="M567.7,195c0,1.4-1.5,2.1-4.4,2.1H553v59.6H530.3V197.1h-6.7a24.4,24.4,0,0,0-4.7.3l-2.4.3c-1.5,0-2.3-.6-2.3-1.7s1.5-2.1,4.4-2.1h39.6a25.4,25.4,0,0,0,4.6-.3l2.6-.3C566.9,193.3,567.7,193.9,567.7,195Z"/><path class="cls-2" d="M617.9,252.9c1.5,0,2.2.6,2.2,1.8a1.7,1.7,0,0,1-1,1.4,6.4,6.4,0,0,1-3.3.6H578.1V193.9h35.1l3.6-.2c2.2,0,3.3.7,3.3,2a2.4,2.4,0,0,1-.5,1.4,1.8,1.8,0,0,1-1.3.6l-2.4-.2a25.3,25.3,0,0,0-5.3-.4h-9.8v13.5h8.1l5.5-.2a2.8,2.8,0,0,1,1.6.5,1.4,1.4,0,0,1,.7,1.3c0,1.2-.8,1.8-2.5,1.8H600.8v39.6h9.8a25.1,25.1,0,0,0,4.7-.3Z"/><path class="cls-2" d="M637.9,250.4v4.4a2.4,2.4,0,0,1-.6,1.8,2,2,0,0,1-1.5.6,2.5,2.5,0,0,1-1.5-.5,1.7,1.7,0,0,1-.5-1.3,5.3,5.3,0,0,1,.1-1.3,9.3,9.3,0,0,1,.2-1.4c.1-.8.2-3,.2-6.4V191l48.3,38.3V202.8a39.4,39.4,0,0,0-.2-4.3c-.1-1.4-.2-2.3-.2-2.9s.6-2.2,1.9-2.2a2.4,2.4,0,0,1,1.4.5,1.9,1.9,0,0,1,.7,1.6v63.7l-48.3-37.9Z"/><path class="cls-2" d="M702.1,193.9h18.4c8.7,0,15,.6,19,1.8s8.2,3.2,10.7,5.5A29.6,29.6,0,0,1,756,208a30.9,30.9,0,0,1,4.4,16.5c0,9.6-3.5,17.5-10.4,23.4a33.3,33.3,0,0,1-17.4,8,105.3,105.3,0,0,1-15.5.8h-15Zm22.6,59.2H727a30.1,30.1,0,0,0,20.6-7.5q9-7.9,9-21a28.8,28.8,0,0,0-3.9-14.9c-3.9-6.4-9.9-10.3-18.2-11.7a80.7,80.7,0,0,0-9.8-.8Z"/><path class="cls-2" d="M299.2,350.7c1,0,1.5.6,1.5,1.7s-.7,1.9-2.1,2.8a28,28,0,0,1-6.7,3.4,38.1,38.1,0,0,1-10.8,1.5,28.7,28.7,0,0,1-10.8-2,25.4,25.4,0,0,1-8.9-5.6c-5.1-5-7.7-11.6-7.7-19.6a26.4,26.4,0,0,1,2.2-10.6,23.6,23.6,0,0,1,6-8.3c5.4-4.9,12.2-7.3,20.4-7.3a30.7,30.7,0,0,1,12.1,2.3c3.7,1.7,5.5,3.1,5.5,4.2a2,2,0,0,1-.4,1.3,1.8,1.8,0,0,1-1.1.5,2.8,2.8,0,0,1-2.1-1.1,10.9,10.9,0,0,0-2.6-1.9,30,30,0,0,0-3.6-1.4,22.9,22.9,0,0,0-7.2-1.3,26.1,26.1,0,0,0-5.4.5V357a25.7,25.7,0,0,0,4.5.4,28.3,28.3,0,0,0,4.1-.3,17.7,17.7,0,0,0,4-.8,14,14,0,0,0,6.7-3.9,15.3,15.3,0,0,1,1.3-1.3A1.5,1.5,0,0,1,299.2,350.7Z"/><path class="cls-2" d="M315.3,352.8a27.2,27.2,0,0,1-5.8-8.6,28.9,28.9,0,0,1-2.1-11.1,25.7,25.7,0,0,1,7.6-19,27.3,27.3,0,0,1,19.4-7.4c7.8,0,14.1,2.4,19,7.3s7.5,11.4,7.5,19.3-2.5,14.3-7.7,19.4a24.9,24.9,0,0,1-11.8,6.5,32.3,32.3,0,0,1-8.1.9,25.1,25.1,0,0,1-9.5-1.9A23.7,23.7,0,0,1,315.3,352.8Zm19.1-43.4a22.5,22.5,0,0,0-3.8.3v47.4a21.7,21.7,0,0,0,3.8.3,22.9,22.9,0,0,0,16.6-6.5,25.5,25.5,0,0,0,.4-34.7C347,311.7,341.3,309.4,334.4,309.4Z"/><path class="cls-2" d="M374.7,354.2v3.6a1.7,1.7,0,0,1-.5,1.5,1.3,1.3,0,0,1-1.2.5,1.6,1.6,0,0,1-1.2-.4,1.8,1.8,0,0,1-.5-1.1c0-.4.1-.7.1-1.1s.1-.7.2-1.1a47.8,47.8,0,0,0,.2-5.3V305l40,31.7V314.8a26.7,26.7,0,0,0-.2-3.6c-.1-1.1-.2-1.9-.2-2.4s.6-1.9,1.6-1.9a2.1,2.1,0,0,1,1.2.5,1.5,1.5,0,0,1,.6,1.3V310l-.2,5.3v46.2l-40-31.4Z"/><path class="cls-2" d="M458.5,326H446.7v33.5H427.9v-52h29.2l3.7-.2h.6c1.9,0,2.8.6,2.8,1.7a1.6,1.6,0,0,1-.5,1.1,1.4,1.4,0,0,1-1.1.6l-1.8-.2a18.3,18.3,0,0,0-4.4-.4h-9.7v13.3h7.4l4.5-.2c1.4,0,2,.5,2,1.4S459.9,326,458.5,326Z"/><path class="cls-2" d="M504.3,356.3c1.3,0,1.9.5,1.9,1.4a1.4,1.4,0,0,1-.8,1.2,5.2,5.2,0,0,1-2.8.5H471.4v-52h29l3-.2c1.9,0,2.8.6,2.8,1.7a1.6,1.6,0,0,1-.5,1.1,1.2,1.2,0,0,1-1,.6,6.9,6.9,0,0,1-2-.3,25.1,25.1,0,0,0-4.4-.3h-8.1v11.2h6.7l4.5-.2a3.3,3.3,0,0,1,1.4.4,1.3,1.3,0,0,1,.6,1.1c0,1-.7,1.6-2.1,1.6H490.2v32.8h8.1a19.6,19.6,0,0,0,3.9-.2A9,9,0,0,1,504.3,356.3Z"/><path class="cls-2" d="M539.3,341.6l3.1.2a15.2,15.2,0,0,0,11-4.5,15.4,15.4,0,0,0,4.5-11.3c0-5.9-2.6-10.2-7.8-13.1a20.9,20.9,0,0,0-9.1-2.7l-3.8-.2h-3.9v49.4H514.5v-52h26.2l4.6.7a23.2,23.2,0,0,1,5.9,2.1,18.9,18.9,0,0,1,5,3.8,16.6,16.6,0,0,1,4.5,11.6,17.9,17.9,0,0,1-4.2,11.7,19.5,19.5,0,0,1-11.5,6.7c2.3,7.1,5.2,11.3,8.7,12.7a9.6,9.6,0,0,0,3.3.6l2.9-.7c.9,0,1.3.4,1.3,1.4s-1.5,1.9-4.5,1.9a10.9,10.9,0,0,1-6.1-1.8c-2.9-1.7-5.3-5.1-7.3-10l-1.1-2.6-.4-.8-.7-.2h-1.8a2.7,2.7,0,0,1-2-.6,1.4,1.4,0,0,1-.5-1.1C536.8,342.1,537.6,341.6,539.3,341.6Z"/><path class="cls-2" d="M603.6,356.3c1.2,0,1.8.5,1.8,1.4a1.2,1.2,0,0,1-.8,1.2,4.8,4.8,0,0,1-2.8.5H570.7v-52h29l3-.2c1.8,0,2.7.6,2.7,1.7a1.5,1.5,0,0,1-.4,1.1,1.4,1.4,0,0,1-1.1.6l-2-.3a23.9,23.9,0,0,0-4.3-.3h-8.2v11.2h6.7l4.6-.2a2.5,2.5,0,0,1,1.3.4,1.3,1.3,0,0,1,.6,1.1c0,1-.7,1.6-2.1,1.6H589.4v32.8h8.2a17.9,17.9,0,0,0,3.8-.2A9.4,9.4,0,0,1,603.6,356.3Z"/><path class="cls-2" d="M618.6,354.2v3.6a1.7,1.7,0,0,1-.5,1.5,1.3,1.3,0,0,1-1.2.5,1.6,1.6,0,0,1-1.2-.4,1.8,1.8,0,0,1-.5-1.1,4.1,4.1,0,0,1,.1-1.1c.1-.3.1-.7.2-1.1s.1-2.5.1-5.3V305l40,31.7V314.8a32.4,32.4,0,0,0-.1-3.6c-.1-1.1-.2-1.9-.2-2.4s.5-1.9,1.6-1.9a2.1,2.1,0,0,1,1.2.5,1.5,1.5,0,0,1,.6,1.3V310l-.2,5.3v46.2l-40-31.4Z"/><path class="cls-2" d="M714,350.7c1,0,1.5.6,1.5,1.7s-.7,1.9-2.1,2.8a28,28,0,0,1-6.7,3.4,38.1,38.1,0,0,1-10.8,1.5,28.7,28.7,0,0,1-10.8-2,25.4,25.4,0,0,1-8.9-5.6c-5.1-5-7.7-11.6-7.7-19.6a24.8,24.8,0,0,1,2.2-10.6,23.6,23.6,0,0,1,6-8.3c5.4-4.9,12.2-7.3,20.3-7.3a30,30,0,0,1,12.1,2.3c3.8,1.7,5.6,3.1,5.6,4.2a2.1,2.1,0,0,1-.5,1.3,1.4,1.4,0,0,1-1,.5,2.8,2.8,0,0,1-2.1-1.1,10.9,10.9,0,0,0-2.6-1.9,30,30,0,0,0-3.6-1.4,23,23,0,0,0-7.3-1.3,25.8,25.8,0,0,0-5.3.5V357a25.7,25.7,0,0,0,4.5.4l4.1-.3a18.9,18.9,0,0,0,4-.8,14,14,0,0,0,6.7-3.9l1.3-1.3A1.5,1.5,0,0,1,714,350.7Z"/><path class="cls-2" d="M758.4,356.3c1.3,0,1.9.5,1.9,1.4a1.4,1.4,0,0,1-.8,1.2,5.2,5.2,0,0,1-2.8.5H725.5v-52h29l3-.2c1.9,0,2.8.6,2.8,1.7a1.6,1.6,0,0,1-.5,1.1,1.2,1.2,0,0,1-1,.6l-2-.3a25.1,25.1,0,0,0-4.4-.3h-8.1v11.2H751l4.5-.2a2.9,2.9,0,0,1,1.4.4,1.3,1.3,0,0,1,.6,1.1c0,1-.7,1.6-2.1,1.6H744.3v32.8h8.1a19.6,19.6,0,0,0,3.9-.2A9,9,0,0,1,758.4,356.3Z"/><path class="cls-2" d="M457,473.5c0,1.2-1.3,1.8-3.7,1.8H417.5c.6-4.9,4.4-12.3,11.5-22.2s12.5-17.2,13.1-18.2a18.1,18.1,0,0,0,1.2-2.2,5.9,5.9,0,0,0,.5-2.2,5.4,5.4,0,0,0-.5-2.2,6.1,6.1,0,0,0-1.5-1.7,10.9,10.9,0,0,0-6.2-1.5,16.9,16.9,0,0,0-6.6,1.1c-3.1,1.4-5.1,2.8-5.9,4.3a2.9,2.9,0,0,1-2.3,1.5c-.9,0-1.3-.5-1.3-1.6s1.2-2.7,3.5-4.2a24.1,24.1,0,0,1,13.3-3.6c6.3,0,11.3,1.3,15.1,4a11.5,11.5,0,0,1,5.4,9.8,15.3,15.3,0,0,1-1,5.7A36.6,36.6,0,0,1,454,446l-2.1,3.6-7.1,10.5a65.9,65.9,0,0,0-7.1,12.6h10.8a15.3,15.3,0,0,0,3.8-.4l3-.4a1.7,1.7,0,0,1,1.3.5A2.5,2.5,0,0,1,457,473.5Z"/><path class="cls-2" d="M486.7,476a22.9,22.9,0,0,1-9-1.7,17.1,17.1,0,0,1-6.7-5.2c-3.8-4.8-5.7-11.7-5.7-20.9s1.9-14.4,5.7-18.9,9.3-6.7,16.3-6.7,12,2.3,15.7,6.8,5.4,10.9,5.4,19.4-1.9,15.6-5.8,20.4S493.5,476,486.7,476Zm.2-2.5c8.7,0,14.5-4.5,17.2-13.4a40.7,40.7,0,0,0,1.4-11.2,39.3,39.3,0,0,0-1.3-11.1,20.6,20.6,0,0,0-3.8-7.4q-4.6-5.4-13.2-5.4h-.4v48.5Z"/><path class="cls-2" d="M522,430.7l-2.3.7a24.6,24.6,0,0,0-3.5,1.3,5.7,5.7,0,0,1-2.9,1c-1.1,0-1.6-.4-1.5-1.3s.8-1.6,2.4-1.9l2.8-.8,23.9-7.2v52.8H522Z"/><path class="cls-2" d="M553.3,467.9a9.3,9.3,0,0,1-1.6-5.2,14.2,14.2,0,0,1,.6-4.4,12.9,12.9,0,0,1,1.6-3.1,7.5,7.5,0,0,1,5-3.3,1.2,1.2,0,0,1,1.1.3,1.4,1.4,0,0,1,0,2.1,2.1,2.1,0,0,1-1.4.7,5,5,0,0,0-1.9,1,7.5,7.5,0,0,0-1.3,1.8,11.9,11.9,0,0,0-.8,4.4,9.4,9.4,0,0,0,1.2,4.7,12.3,12.3,0,0,0,3.6,3.6c3.2,2,7.3,3,12.4,3a15.3,15.3,0,0,0,7-1.6c2.1-1.1,3.2-2.4,3.2-3.9a5.7,5.7,0,0,0-1.7-3.9c-1.7-1.9-4.7-4.1-9.1-6.7s-7.6-4.7-9.8-6.3a35.8,35.8,0,0,1-5.2-4.8,13.8,13.8,0,0,1-3.3-9.1c0-4.3,2.1-7.8,6.1-10.5s9.1-4.1,15.5-4.1a25.1,25.1,0,0,1,11.1,2.4,11.4,11.4,0,0,1,5.3,4.8,8.9,8.9,0,0,1,.8,3.8,11.4,11.4,0,0,1-.6,3.9,7.6,7.6,0,0,1-1.6,2.8,9,9,0,0,1-5,2.7l-.9.2a1.3,1.3,0,0,1-.9-.4,1.3,1.3,0,0,1-.4-1,1.9,1.9,0,0,1,.4-1.1,2.1,2.1,0,0,1,1.5-.5,5.9,5.9,0,0,0,1.9-.5,4.4,4.4,0,0,0,1.5-1.2,6.1,6.1,0,0,0,1.4-4,7.4,7.4,0,0,0-.7-3.6,8.8,8.8,0,0,0-1.9-2.4,12.4,12.4,0,0,0-2.7-1.7l-3-1.1a20.6,20.6,0,0,0-6-.8c-3.7,0-6.3.7-7.9,2.2a2.9,2.9,0,0,0-.9,2.2,8.5,8.5,0,0,0,.5,2.6,11,11,0,0,0,2,2.7,32.6,32.6,0,0,0,8.7,6.4c3.9,2.2,6.9,4.1,9.2,5.7a33.6,33.6,0,0,1,5.4,4.5,12,12,0,0,1,3.5,8.6,13.4,13.4,0,0,1-4.3,10.1c-4.5,4.1-11,6.1-19.5,6.1-5.6,0-10.2-1.2-14-3.7A14.3,14.3,0,0,1,553.3,467.9Z"/></g></svg>